# xmcd
#
# Track frame offsets:
#	150
#	31203
#	53190
#	71243
#	87932
#	111407
#	130875
#	149708
#	170879
#	188674
#	207134
#
# Disc length: 2915 seconds
#
# Revision: 0
# Processed by: cddbd v1.4PL0 Copyright (c) Steve Scherf et al.
# Submitted via: dBpowerAMP V4.0
#
DISCID=aa0b610b
DTITLE=Damián Martínez - Antzetic
DYEAR=1900
DGENRE=
TTITLE0=Que no pase el tiempo
TTITLE1=K'evujel k'ak'al
TTITLE2=Último descanso
TTITLE3=Maruch
TTITLE4=El vuelo del Zanate
TTITLE5=Esperanza mía
TTITLE6=Ch'ul totik
TTITLE7=Historia sin fin
TTITLE8=Niños
TTITLE9=Antzetik
TTITLE10=Me cansé de llorar
EXTD=
EXTT0=
EXTT1=
EXTT2=
EXTT3=
EXTT4=
EXTT5=
EXTT6=
EXTT7=
EXTT8=
EXTT9=
EXTT10=
PLAYORDER=
